<svg width="32" height="32" viewBox="0 0 32 32" fill="none" xmlns="http://www.w3.org/2000/svg">
<g clip-path="url(#clip0_7_10)">
<path d="M26.6667 29.3333H5.33333C4.97971 29.3333 4.64057 29.1928 4.39052 28.9428C4.14048 28.6927 4 28.3536 4 28V3.99999C4 3.64637 4.14048 3.30723 4.39052 3.05718C4.64057 2.80713 4.97971 2.66666 5.33333 2.66666H26.6667C27.0203 2.66666 27.3594 2.80713 27.6095 3.05718C27.8595 3.30723 28 3.64637 28 3.99999V28C28 28.3536 27.8595 28.6927 27.6095 28.9428C27.3594 29.1928 27.0203 29.3333 26.6667 29.3333ZM12 7.99999H9.33333V10.6667C9.33333 12.4348 10.0357 14.1305 11.286 15.3807C12.5362 16.6309 14.2319 17.3333 16 17.3333C17.7681 17.3333 19.4638 16.6309 20.714 15.3807C21.9643 14.1305 22.6667 12.4348 22.6667 10.6667V7.99999H20V10.6667C20 11.7275 19.5786 12.7449 18.8284 13.4951C18.0783 14.2452 17.0609 14.6667 16 14.6667C14.9391 14.6667 13.9217 14.2452 13.1716 13.4951C12.4214 12.7449 12 11.7275 12 10.6667V7.99999Z" fill="#A88746"/>
</g>
<defs>
<clipPath id="clip0_7_10">
<rect width="32" height="32" fill="white"/>
</clipPath>
</defs>
</svg>
