<svg width="129" height="80" viewBox="0 0 129 80" fill="none" xmlns="http://www.w3.org/2000/svg">
<g clip-path="url(#clip0_4_786)">
<g clip-path="url(#clip1_4_786)">
<g clip-path="url(#clip2_4_786)">
<path d="M0.194824 75.4068V0.0792542H128.805V75.4068H93.279V72.871H126.284V2.61512H2.71642V72.871H35.7211V75.4068H0.194824Z" fill="white"/>
<path d="M46.702 76.6548C47.1673 76.6548 47.5363 76.4279 47.8085 75.9741C48.0794 75.5203 48.2148 74.8358 48.2148 73.921C48.2148 73.2189 48.0866 72.6834 47.8298 72.3144C47.5716 71.9458 47.2311 71.7613 46.808 71.7613C46.1873 71.7613 45.6514 72.0627 45.2002 72.6658V75.9741C45.5952 76.4279 46.0958 76.6548 46.702 76.6548ZM44.1952 78.0272V72.8572C44.1952 72.382 44.1845 72.0486 44.1633 71.8572L43.3277 71.7506C43.3064 71.6372 43.3064 71.5024 43.3277 71.3465C43.8214 71.311 44.4276 71.2365 45.147 71.1231C45.2105 71.1868 45.2458 71.2579 45.253 71.3358C45.2177 71.5841 45.2002 71.8465 45.2002 72.1231C45.7714 71.4565 46.4274 71.1231 47.1677 71.1231C47.7883 71.1231 48.305 71.382 48.7182 71.8996C49.13 72.4172 49.3361 73.1017 49.3361 73.9527C49.3361 74.9386 49.0666 75.7306 48.5279 76.3293C47.9879 76.9293 47.3508 77.2293 46.6177 77.2293C46.103 77.2293 45.6305 77.0627 45.2002 76.7293V79.3358L46.2686 79.4951C46.2967 79.6086 46.2967 79.7503 46.2686 79.9206C45.8242 79.8993 45.3342 79.8886 44.798 79.8889C44.403 79.8889 43.9095 79.8962 43.317 79.9103C43.2749 79.7686 43.2749 79.6303 43.317 79.4951L44.1527 79.3782C44.1808 78.9882 44.1948 78.5379 44.1952 78.0272ZM54.6779 74.0169H51.3567C51.2933 75.8255 51.8327 76.7296 52.9752 76.7293C53.4617 76.7293 53.9589 76.5131 54.4664 76.0803C54.572 76.1441 54.6532 76.2541 54.7098 76.4103C54.2233 76.9565 53.6061 77.2293 52.8586 77.2293C51.138 77.2293 50.2777 76.2117 50.2777 74.1762C50.2777 73.2117 50.5314 72.4613 51.0392 71.9251C51.547 71.3903 52.1392 71.1231 52.8164 71.1231C53.557 71.1231 54.0892 71.382 54.4136 71.8996C54.7379 72.4172 54.9001 73.091 54.9001 73.921C54.8295 73.9779 54.7554 74.0096 54.6779 74.0169ZM52.7951 71.5486C52.4286 71.5486 52.1166 71.74 51.8601 72.1231C51.6019 72.5062 51.4448 72.9955 51.3883 73.5913H52.6998C53.2217 73.5913 53.5954 73.5593 53.8214 73.4955C53.8214 72.9141 53.7333 72.4437 53.5567 72.0848C53.3805 71.7272 53.1264 71.5486 52.7951 71.5486ZM57.6083 71.3358L57.587 72.4317C57.7632 72.1055 58.0087 71.8055 58.3235 71.5317C58.6366 71.2593 58.9342 71.1231 59.2161 71.1231C59.4348 71.1231 59.6286 71.1479 59.7979 71.1975C59.8545 71.2896 59.8826 71.4103 59.8826 71.5593C59.8826 71.7934 59.8333 72.0272 59.7345 72.2613C59.4808 72.1903 59.2373 72.1551 59.0045 72.1551C58.4264 72.1551 57.9501 72.4389 57.5764 73.0062L57.5555 74.8679V76.4741L58.7295 76.6337C58.7576 76.7472 58.7576 76.8889 58.7295 77.0593C58.2851 77.0379 57.7773 77.0272 57.2064 77.0272C56.7761 77.0272 56.2648 77.0344 55.6723 77.0486C55.6301 76.9137 55.6301 76.7755 55.6723 76.6337L56.5083 76.5165C56.5364 76.1265 56.5505 75.6762 56.5505 75.1655V72.2506C56.5505 72.1089 56.5398 71.9775 56.5186 71.8572L55.6829 71.7506C55.6548 71.6444 55.6548 71.5096 55.6829 71.3465C56.1695 71.311 56.7761 71.2365 57.5026 71.1231C57.5661 71.1941 57.6014 71.2648 57.6083 71.3358ZM62.8867 68.3358C63.9373 68.3358 64.4629 68.7541 64.4629 69.5913C64.3148 69.7472 63.9623 69.8217 63.4051 69.8148C63.3345 69.07 63.1548 68.6979 62.8658 68.6975C62.5976 68.6975 62.4094 68.9117 62.3007 69.3403C62.1906 69.77 62.1358 70.5524 62.1358 71.6869H63.6273C63.6695 71.8217 63.6695 71.96 63.6273 72.1017L62.1358 72.3251V76.421L63.4158 76.6337C63.4579 76.7755 63.4579 76.9175 63.4158 77.0593C62.9714 77.0379 62.4248 77.0272 61.7761 77.0272C61.3951 77.0272 60.9086 77.0344 60.3164 77.0486C60.2598 76.921 60.2598 76.7827 60.3164 76.6337L61.0886 76.4634C61.1167 76.0875 61.1307 75.6548 61.1307 75.1655V72.2189L60.3798 72.1017C60.3376 71.96 60.3376 71.8217 60.3798 71.6869H61.1307V70.9637C61.1307 70.5382 61.1908 70.132 61.3108 69.7444C61.4308 69.3586 61.6296 69.0275 61.9074 68.751C62.1865 68.4744 62.5133 68.3362 62.8867 68.3358ZM69.4029 71.3358V75.5062C69.4029 75.9813 69.4135 76.3148 69.4348 76.5058L70.2704 76.6124C70.2917 76.7258 70.2917 76.8606 70.2704 77.0165C69.7557 77.0379 69.2198 77.0875 68.6626 77.1655C68.6132 77.1158 68.5779 77.0486 68.5567 76.9634L68.5039 76.0165C68.2076 76.3996 67.9031 76.6972 67.5897 76.9103C67.2753 77.1231 66.9063 77.2296 66.4832 77.2293C66.0529 77.2293 65.6918 77.1193 65.4 76.8996C65.1065 76.6796 64.9601 76.3037 64.9601 75.772V73.4103C64.9601 72.6017 64.9495 72.0841 64.9282 71.8572L64.0926 71.7506C64.0645 71.6444 64.0645 71.5096 64.0926 71.3465C64.5792 71.311 65.1857 71.2365 65.9123 71.1231C65.9757 71.1941 66.0111 71.2648 66.0179 71.3358C65.9826 71.5203 65.9651 72.8217 65.9651 75.24C65.9651 75.7365 66.0238 76.0889 66.1407 76.2975C66.2562 76.5075 66.4729 76.6124 66.7901 76.6124C67.3826 76.6124 67.9186 76.2579 68.3979 75.5486V73.3996C68.3979 72.5982 68.3873 72.0841 68.3664 71.8572L67.5307 71.7506C67.5026 71.6444 67.5026 71.5096 67.5307 71.3465C67.9539 71.3182 68.5426 71.2437 69.2973 71.1231C69.3607 71.1941 69.3961 71.2648 69.4029 71.3358ZM78.6166 75.1655V73.2189C78.6166 72.2331 78.3029 71.7403 77.6751 71.7403C77.1392 71.7403 76.6313 72.1127 76.152 72.8572V76.4741L77.0085 76.6337C77.0366 76.7472 77.0366 76.8889 77.0085 77.0593C76.5641 77.0379 76.1129 77.0272 75.6548 77.0272C75.3304 77.0272 74.872 77.0344 74.2795 77.0486C74.2373 76.9137 74.2373 76.7755 74.2795 76.6337L75.1151 76.5165C75.1432 76.1265 75.1573 75.6762 75.1576 75.1655V73.2189C75.1576 72.2331 74.8439 71.7403 74.216 71.7403C73.8985 71.7403 73.6201 71.8375 73.3804 72.0317C73.1407 72.2275 72.8939 72.531 72.6398 72.9424V76.4741L73.4967 76.6337C73.5248 76.7472 73.5248 76.8889 73.4967 77.0593C73.0523 77.0379 72.601 77.0272 72.1426 77.0272C71.8182 77.0272 71.3598 77.0344 70.7676 77.0486C70.7254 76.9137 70.7254 76.7755 70.7676 76.6337L71.6032 76.5165C71.6313 76.1265 71.6454 75.6762 71.6454 75.1655V72.2506C71.6454 72.1089 71.6348 71.9775 71.6139 71.8572L70.7782 71.7506C70.7501 71.6444 70.7501 71.5096 70.7782 71.3465C71.2507 71.311 71.8535 71.2365 72.587 71.1231C72.6504 71.1941 72.6857 71.2648 72.6929 71.3358C72.6576 71.5203 72.6401 71.8358 72.6398 72.2827C73.197 71.5096 73.8245 71.1231 74.5229 71.1231C74.8895 71.1231 75.2245 71.2165 75.5276 71.4041C75.8307 71.5927 76.0248 71.882 76.1095 72.272C76.6735 71.5062 77.2979 71.1231 77.982 71.1231C78.4123 71.1231 78.7915 71.2506 79.12 71.5062C79.4471 71.7613 79.6107 72.1551 79.611 72.6868V76.4741L80.4676 76.6337C80.4957 76.7472 80.4957 76.8889 80.4676 77.0593C80.0232 77.0379 79.5719 77.0272 79.1138 77.0272C78.7895 77.0272 78.331 77.0344 77.7385 77.0486C77.6963 76.9137 77.6963 76.7755 77.7385 76.6337L78.5741 76.5165C78.6023 76.1265 78.6163 75.6762 78.6166 75.1655ZM85.4922 74.0169H82.1707C82.1073 75.8255 82.6466 76.7296 83.7895 76.7293C84.276 76.7293 84.7732 76.5131 85.2807 76.0803C85.3863 76.1441 85.4676 76.2541 85.5241 76.4103C85.0376 76.9565 84.4204 77.2293 83.6729 77.2293C81.9523 77.2293 81.092 76.2117 81.092 74.1762C81.092 73.2117 81.3457 72.4613 81.8535 71.9251C82.3613 71.3903 82.9535 71.1231 83.6307 71.1231C84.3713 71.1231 84.9035 71.382 85.2279 71.8996C85.5522 72.4172 85.7144 73.091 85.7144 73.921C85.6438 73.9779 85.5697 74.0096 85.4922 74.0169ZM83.6094 71.5486C83.2429 71.5486 82.9309 71.74 82.6744 72.1231C82.4162 72.5062 82.2592 72.9955 82.2026 73.5913H83.5141C84.036 73.5913 84.4097 73.5593 84.6357 73.4955C84.6357 72.9141 84.5476 72.4437 84.371 72.0848C84.1948 71.7272 83.9407 71.5486 83.6094 71.5486Z" fill="white"/>
<g clip-path="url(#clip3_4_786)">
<g clip-path="url(#clip4_4_786)">
<g clip-path="url(#clip5_4_786)">
<g clip-path="url(#clip6_4_786)">
<g clip-path="url(#clip7_4_786)">
<g clip-path="url(#clip8_4_786)">
<g clip-path="url(#clip9_4_786)">
<path d="M10.2642 53.5968H30.3404L30.5657 44.3749H29.6552L28.8762 47.4709C28.1441 50.2963 26.9208 51.9072 25.2064 52.3036C24.8435 52.3665 24.493 52.398 24.1552 52.398H17.8761V27.1395H21.7242V25.9408H10.2642V27.1395H13.934V52.398H10.2642V53.5968ZM31.4855 25.9408V27.1395H35.1459V43.2234C35.2085 50.4158 38.7689 54.0278 45.827 54.0593C51.2082 54.0593 54.4619 51.8474 55.5882 47.4237C55.9261 46.0708 56.0951 44.5323 56.0951 42.8081V27.1395H59.7649V25.9408H50.8202V27.1395H54.4901V43.0913C54.4901 49.0503 52.2907 52.2596 47.8919 52.7189C47.5227 52.7504 47.1566 52.7661 46.7937 52.7661C43.0644 52.7661 40.7117 51.1835 39.7356 48.0184C39.3039 46.634 39.088 44.9444 39.088 42.9497V27.1395H42.7109V25.9408H31.4855ZM80.7891 25.9408V27.1395H84.6936V47.7918L67.2736 25.9408H60.9006V27.1395H64.5704V52.398H60.9006V53.5968H70.2958C70.2958 52.9234 70.0518 52.5396 69.5637 52.4452C69.4135 52.4137 69.2602 52.398 69.1038 52.398H66.4007V31.0567L84.412 53.8233L86.5239 53.3702V27.1395H90.1843V25.9408H80.7891ZM108.834 53.5968H118.736C118.736 52.9234 118.492 52.5396 118.004 52.4452C117.854 52.4137 117.7 52.398 117.544 52.398H115.986L105.493 25.9408H103.794L93.5351 52.398H90.6442V53.5968H98.8005C98.8005 52.9234 98.5565 52.5396 98.0684 52.4452C97.9182 52.4137 97.7649 52.398 97.6085 52.398H95.3653L98.8005 43.4594H108.383L111.819 52.398H108.834V53.5968ZM103.568 30.9717L107.877 42.119H99.3073L103.568 30.9717Z" fill="white"/>
</g>
</g>
</g>
</g>
</g>
</g>
</g>
</g>
</g>
</g>
<defs>
<clipPath id="clip0_4_786">
<rect width="129" height="80" fill="white"/>
</clipPath>
<clipPath id="clip1_4_786">
<rect width="128.61" height="79.8416" fill="white" transform="translate(0.194885 0.0792236)"/>
</clipPath>
<clipPath id="clip2_4_786">
<rect width="128.61" height="79.8416" fill="white" transform="translate(0.194885 0.0792236)"/>
</clipPath>
<clipPath id="clip3_4_786">
<rect width="108.495" height="28.1185" fill="white" transform="translate(10.2524 25.9408)"/>
</clipPath>
<clipPath id="clip4_4_786">
<rect width="108.495" height="28.1185" fill="white" transform="translate(10.2524 25.9408)"/>
</clipPath>
<clipPath id="clip5_4_786">
<rect width="108.495" height="28.1185" fill="white" transform="translate(10.2524 25.9408)"/>
</clipPath>
<clipPath id="clip6_4_786">
<rect width="108.495" height="28.1185" fill="white" transform="translate(10.2524 25.9408)"/>
</clipPath>
<clipPath id="clip7_4_786">
<rect width="108.495" height="28.1185" fill="white" transform="translate(10.2524 25.9408)"/>
</clipPath>
<clipPath id="clip8_4_786">
<rect width="108.495" height="28.1185" fill="white" transform="translate(10.2524 25.9408)"/>
</clipPath>
<clipPath id="clip9_4_786">
<rect width="108.495" height="28.1185" fill="white" transform="translate(10.2524 25.9408)"/>
</clipPath>
</defs>
</svg>
